<svg width="37" height="33" viewBox="0 0 37 33" fill="none" xmlns="http://www.w3.org/2000/svg">
<path d="M27.7945 0.00455641C30.0248 -0.0650659 31.9659 0.663737 33.629 2.15324C33.9448 2.46971 34.2288 2.8005 34.5037 3.1529C34.602 3.27758 34.602 3.27758 34.7024 3.40477C35.4499 4.43193 35.9711 5.74692 36.0032 7.02659C36.008 7.16029 36.0128 7.29398 36.0178 7.43173C36.0639 9.81455 35.2687 11.7477 33.6627 13.5073C33.1641 13.9767 32.5984 14.3136 32.0045 14.649C31.9211 14.6991 31.8377 14.7492 31.7517 14.8008C30.0638 15.7445 27.7345 15.7868 25.886 15.3304C25.253 15.1895 24.5716 15.1752 24.0072 15.5237C23.6842 16.1767 23.6734 16.8089 23.7573 17.523C24.0531 18.1601 24.3708 18.3797 25.0069 18.6477C26.7754 18.9286 28.5586 18.3303 30.2551 17.8979C30.4864 17.8406 30.7178 17.7835 30.9492 17.7266C31.4556 17.6017 31.9612 17.4745 32.4667 17.346C32.9475 17.2241 33.4288 17.1042 33.9101 16.9842C34.0748 16.943 34.2395 16.9018 34.4041 16.8607C34.5194 16.8318 34.6348 16.803 34.7536 16.7733C34.7536 17.0232 34.7536 17.0232 34.5037 17.2887C34.379 17.4088 34.254 17.5285 34.1288 17.648C33.6347 18.1308 33.1498 18.6153 32.6996 19.1397C32.3786 19.5134 32.0429 19.8636 31.6921 20.2096C31.359 20.5388 31.0368 20.8697 30.7315 21.2249C30.0906 21.9707 29.4105 22.681 28.7379 23.3981C28.4428 23.7131 28.1485 24.0287 27.8541 24.3444C27.1795 25.068 26.5036 25.7905 25.8269 26.5122C25.7108 26.6361 25.7108 26.6361 25.5923 26.7624C25.1935 27.1877 24.7945 27.6127 24.3953 28.0375C24.3154 28.1226 24.2355 28.2077 24.1532 28.2954C23.9946 28.4642 23.8359 28.633 23.677 28.8016C23.3208 29.1806 22.9678 29.5612 22.6239 29.9515C21.3338 31.4137 19.9193 32.2982 17.9414 32.4491C15.6794 32.5417 13.8678 31.7576 12.1114 30.3727C11.1488 29.3994 10.4999 28.2244 9.8714 27.0198C9.79057 26.8667 9.70965 26.7137 9.62866 26.5607C9.37994 26.0898 9.13343 25.6177 8.88736 25.1455C8.84871 25.0714 8.81006 24.9973 8.77024 24.921C8.29248 24.0053 7.81765 23.0881 7.34388 22.1704C6.55849 20.6494 5.77046 19.1312 4.94338 17.6324C4.1388 16.1723 3.38218 14.6878 2.62477 13.2029C2.152 12.2765 1.67636 11.3529 1.17928 10.4392C0.189757 8.61337 -0.313615 6.95763 0.21061 4.87888C0.749468 3.19847 1.83911 1.7914 3.41 0.967213C5.55998 -0.105697 8.15055 0.0387101 10.402 0.782613C12.5468 1.59137 13.7862 3.06946 14.776 5.07413C14.8566 5.23416 14.9375 5.3941 15.0185 5.55395C15.1848 5.88255 15.3504 6.21152 15.5154 6.5408C15.8915 7.28971 16.2793 8.03251 16.666 8.776C16.7371 8.91387 16.8083 9.05175 16.8815 9.1938C17.2251 9.85893 17.5732 10.5206 17.9331 11.177C17.9988 11.2981 18.0645 11.4191 18.1322 11.5439C18.2552 11.77 18.3798 11.9952 18.5063 12.2194C18.5601 12.3187 18.6138 12.418 18.6692 12.5203C18.717 12.6062 18.7647 12.692 18.8139 12.7805C18.884 13.0246 18.884 13.0246 18.7908 13.2863C18.5641 13.6306 18.2821 13.8944 17.9858 14.1804C17.58 14.5768 17.1824 14.9743 16.8144 15.4066C16.4803 15.7983 16.1263 16.1615 15.76 16.5234C15.2332 17.0446 14.7394 17.5827 14.2605 18.1478C14.0731 18.2728 13.9664 18.4186 13.8232 18.5852C13.7175 18.7089 13.3697 18.9576 13.2609 19.085C13.4329 19.0217 13.6828 18.9592 13.8583 18.8946C14.0117 18.8389 14.165 18.7832 14.323 18.7258C14.5492 18.6431 14.5492 18.6431 14.7799 18.5588C15.1777 18.4203 15.5789 18.3117 15.9887 18.2132C19.0747 17.5499 19.0747 17.5499 21.758 16.0235C21.8405 16.0235 21.9454 16.0236 22.0079 15.9611C22.0704 15.8986 22.0801 15.838 22.1173 15.7424C22.2578 15.3988 22.2578 15.3988 22.3877 15.1708C22.6372 14.6058 22.5905 14.0007 22.5078 13.3994C22.3106 12.9077 22.0349 12.4753 21.758 12.0249C20.6311 9.9684 20.1031 7.89867 20.7193 5.58177C21.1077 4.40288 21.7102 3.47193 22.5078 2.52812C22.5686 2.4537 22.6295 2.37928 22.6923 2.30261C23.9954 0.852454 25.8934 0.116782 27.7945 0.00455641Z" fill="white"/>
<path d="M12.23 1.74716C13.4403 2.62256 14.1255 3.75665 14.776 5.07416C14.8566 5.23419 14.9375 5.39413 15.0185 5.55398C15.1848 5.88258 15.3504 6.21155 15.5154 6.54083C15.8915 7.28974 16.2793 8.03254 16.666 8.77603C16.7371 8.91391 16.8082 9.05178 16.8815 9.19383C17.2251 9.85896 17.5732 10.5207 17.9331 11.1771C17.9988 11.2981 18.0645 11.4192 18.1322 11.5439C18.2552 11.77 18.3798 11.9953 18.5063 12.2194C18.5601 12.3188 18.6138 12.4181 18.6692 12.5204C18.717 12.6062 18.7647 12.6921 18.8139 12.7805C18.884 13.0246 18.884 13.0246 18.7908 13.2864C18.5641 13.6307 18.2821 13.8944 17.9858 14.1805C17.58 14.5768 17.1824 14.9743 16.8144 15.4066C16.3909 15.9032 15.9307 16.3572 15.4633 16.8124C15.2088 17.0729 14.9726 17.3351 14.7365 17.6114C14.2988 18.1168 13.8263 18.578 13.3455 19.042C11.6083 20.7241 10.2127 22.4569 10.0901 24.9737C10.1247 26.3482 10.5771 27.6601 11.2401 28.8498C11.3865 29.1441 11.3865 29.1441 11.3865 29.519C10.6785 28.5758 10.1273 27.5776 9.59806 26.5278C9.51519 26.3653 9.43222 26.2027 9.34915 26.0403C9.18539 25.7199 9.02198 25.3994 8.85881 25.0788C8.57884 24.531 8.29302 23.9865 8.00485 23.4429C7.65839 22.7881 7.3151 22.1318 6.97541 21.4734C6.30563 20.1753 5.6345 18.8796 4.92776 17.6012C4.12769 16.1518 3.37686 14.6774 2.62471 13.2028C2.15196 12.2764 1.67634 11.3529 1.17928 10.4392C0.189757 8.6134 -0.313615 6.95766 0.21061 4.87892C0.749468 3.19851 1.83911 1.79144 3.41 0.967246C6.10487 -0.377584 9.76668 0.0428432 12.23 1.74716Z" fill="white"/>
</svg>
