<svg width="50" height="50" viewBox="0 0 50 50" fill="none" xmlns="http://www.w3.org/2000/svg">
<path fill-rule="evenodd" clip-rule="evenodd" d="M37.1369 45.1628C36.7163 45.5093 36.6539 46.1329 36.9975 46.5558C37.3411 46.9787 37.9606 47.0407 38.3812 46.6943L39.3548 45.8923C39.7811 45.5411 40.409 45.6039 40.7572 46.0326L41.6804 47.1688C42.0242 47.5919 42.644 47.6539 43.0648 47.3073C43.4856 46.9607 43.548 46.3367 43.2042 45.9135L42.2811 44.7773C41.9328 44.3487 41.996 43.7166 42.4223 43.3654L43.7154 42.3003C44.1359 41.9538 44.1983 41.3302 43.8547 40.9073C43.5111 40.4844 42.8916 40.4224 42.4711 40.7688L41.178 41.834C40.7517 42.1851 40.1239 42.1223 39.7756 41.6937L38.8498 40.5543C38.5061 40.1312 37.8862 40.0691 37.4654 40.4158C37.0447 40.7624 36.9822 41.3864 37.326 41.8095L38.2518 42.9489C38.6 43.3775 38.5368 44.0097 38.1105 44.3608L37.1369 45.1628Z" fill="#C74252"/>
<path fill-rule="evenodd" clip-rule="evenodd" d="M44.2501 19.865C44.0541 19.436 43.5437 19.2447 43.1091 19.4374C42.673 19.6307 42.4787 20.1371 42.6753 20.5675L43.0811 21.4556C43.31 21.9568 43.0837 22.5465 42.576 22.7716L41.5338 23.2336C41.095 23.4281 40.8995 23.9376 41.0973 24.3707C41.2945 24.8024 41.8081 24.9948 42.2454 24.801L43.2956 24.3354C43.8017 24.1111 44.396 24.3338 44.6242 24.8334L45.1834 26.0573C45.3794 26.4863 45.8898 26.6776 46.3244 26.485C46.7605 26.2917 46.9548 25.7853 46.7582 25.3548L46.2026 24.1387C45.9736 23.6375 46.2 23.0479 46.7077 22.8228L47.7532 22.3593C48.192 22.1648 48.3876 21.6552 48.1897 21.2222C47.9925 20.7905 47.4789 20.598 47.0416 20.7919L45.9881 21.2589C45.482 21.4833 44.8877 21.2605 44.6595 20.761L44.2501 19.865Z" fill="#C74252"/>
<path fill-rule="evenodd" clip-rule="evenodd" d="M5.61956 23.9968C5.22671 23.6086 4.58978 23.6086 4.19693 23.9968L3.83406 24.3553C3.44122 24.7435 3.44122 25.3729 3.83406 25.7611L5.34903 27.2581C5.74188 27.6463 5.74188 28.2757 5.34903 28.6639L3.6489 30.3438C3.25606 30.732 3.25606 31.3614 3.6489 31.7496L4.01177 32.1082C4.40462 32.4963 5.04155 32.4963 5.43439 32.1082L7.13453 30.4282C7.52737 30.04 8.1643 30.04 8.55715 30.4282L10.4462 32.2948C10.839 32.683 11.4759 32.683 11.8688 32.2948L12.2316 31.9362C12.6245 31.548 12.6245 30.9187 12.2316 30.5305L10.3426 28.6639C9.94979 28.2757 9.94979 27.6463 10.3426 27.2581L12.0465 25.5745C12.4393 25.1863 12.4393 24.5569 12.0465 24.1687L11.6836 23.8101C11.2908 23.422 10.6538 23.422 10.261 23.8101L8.55715 25.4938C8.1643 25.882 7.52737 25.882 7.13453 25.4938L5.61956 23.9968Z" fill="#C74252"/>
<path fill-rule="evenodd" clip-rule="evenodd" d="M11.1062 43.8421C10.8164 43.7749 10.5245 43.9547 10.4542 44.2437C10.3839 44.5328 10.5618 44.8216 10.8516 44.8889L11.1922 44.9679C11.6701 45.0789 11.9635 45.5552 11.8475 46.0319L11.7398 46.4749C11.6693 46.7646 11.8477 47.0542 12.1381 47.1216C12.4286 47.189 12.7212 47.0088 12.7916 46.7191L12.8867 46.3283C13.0096 45.8227 13.5201 45.5083 14.0269 45.6259L14.5355 45.744C14.8253 45.8112 15.1172 45.6314 15.1875 45.3424C15.2578 45.0533 15.0799 44.7645 14.7901 44.6972L14.2826 44.5794C13.7752 44.4616 13.4636 43.9558 13.5867 43.4497L13.682 43.0578C13.7525 42.7681 13.5741 42.4786 13.2837 42.4111C12.9932 42.3437 12.7006 42.5239 12.6302 42.8137L12.5219 43.2589C12.406 43.7356 11.9246 44.0321 11.4468 43.9212L11.1062 43.8421Z" fill="#C74252"/>
<path fill-rule="evenodd" clip-rule="evenodd" d="M11.9392 10.9577C11.5417 11.0657 11.3044 11.4761 11.4092 11.8745C11.514 12.2729 11.9212 12.5083 12.3187 12.4003L13.0076 12.2131C13.5406 12.0683 14.0866 12.3839 14.2271 12.918L14.4463 13.751C14.5513 14.1503 14.9595 14.3862 15.3579 14.278C15.7563 14.1698 15.9941 13.7583 15.8891 13.3591L15.6699 12.5261C15.5294 11.9919 15.8475 11.4416 16.3805 11.2968L17.3718 11.0275C17.7693 10.9195 18.0066 10.509 17.9018 10.1107C17.7969 9.71229 17.3897 9.4769 16.9922 9.58489L16.0009 9.8542C15.468 9.999 14.922 9.6834 14.7815 9.14929L14.5615 8.31327C14.4564 7.91401 14.0483 7.67808 13.6499 7.78632C13.2515 7.89456 13.0137 8.30597 13.1187 8.70524L13.3387 9.54125C13.4792 10.0754 13.1611 10.6257 12.6281 10.7705L11.9392 10.9577Z" fill="#C74252"/>
<path d="M23.7161 9.85584C24.2225 5.96331 21.7397 -1.52588e-05 21.7397 -1.52588e-05C21.7397 -1.52588e-05 29.151 6.40629 31.6215 11.827C30.1392 17.7405 26.1866 17.7405 25.1983 25.6252C25.1984 31.5387 33.1037 38.4378 33.1037 38.4378C33.1037 38.4378 27.6687 34.4955 22.7279 39.4234C19.5706 43.6052 23.7161 47.3081 23.7161 47.3081C23.7161 47.3081 20.3935 44.4874 17.787 41.8874C17.293 41.3946 13.8344 36.9595 18.2811 33.5099C21.2457 32.0315 25.1983 32.0315 25.1983 32.0315C25.1983 32.0315 18.2812 25.6252 18.2811 20.2045C18.7752 15.2766 22.7279 14.7838 23.7161 9.85584Z" fill="#CC3535"/>
</svg>
