<svg width="53" height="51" viewBox="0 0 53 51" fill="none" xmlns="http://www.w3.org/2000/svg">
<path fill-rule="evenodd" clip-rule="evenodd" d="M28.4742 18.2474C28.4742 17.5585 27.9157 17 27.2267 17C26.5378 17 25.9793 17.5585 25.9793 18.2474V21.9436C25.9793 24.6739 23.766 26.8872 21.0357 26.8872H17.2368C16.5538 26.8872 16 27.4409 16 28.124C16 28.8071 16.5538 29.3609 17.2368 29.3609H21.0367C23.7664 29.3609 25.9793 31.5737 25.9793 34.3035V37.9987C25.9793 38.6876 26.5378 39.2461 27.2267 39.2461C27.9157 39.2461 28.4742 38.6876 28.4742 37.9987V34.3035C28.4742 31.5738 30.6871 29.3609 33.4168 29.3609H37.2172C37.9003 29.3609 38.4541 28.8071 38.4541 28.124C38.4541 27.4409 37.9003 26.8872 37.2172 26.8872H33.4178C30.6875 26.8872 28.4742 24.6739 28.4742 21.9436V18.2474Z" fill="#FDE8B2"/>
<ellipse cx="47.9898" cy="16.9436" rx="4.9898" ry="4.94358" fill="#FF8696"/>
<path d="M17.227 46.4154C17.227 48.4631 15.5515 50.1231 13.4847 50.1231C11.4179 50.1231 9.74235 48.4631 9.74235 46.4154C9.74235 44.3677 11.4179 42.7077 13.4847 42.7077C15.5515 42.7077 17.227 44.3677 17.227 46.4154Z" fill="#42BFC7"/>
<rect width="7.63464" height="7.63464" rx="1" transform="matrix(0.710389 -0.70381 0.710389 0.70381 17 5.37333)" fill="#88A4C9"/>
<path d="M36.7102 44.4967C36.3179 44.108 36.3179 43.4778 36.7102 43.0891L42.1459 37.7038C42.5382 37.3151 43.1743 37.3151 43.5666 37.7038L49.0023 43.0891C49.3946 43.4778 49.3946 44.108 49.0023 44.4967L43.5666 49.882C43.1743 50.2707 42.5382 50.2707 42.1459 49.882L36.7102 44.4967Z" fill="#FF8696"/>
<ellipse cx="4.48285" cy="20.5084" rx="3.74235" ry="3.70769" transform="rotate(-76.4179 4.48285 20.5084)" fill="#BDDFE1"/>
</svg>
