<svg width="57" height="57" viewBox="0 0 57 57" fill="none" xmlns="http://www.w3.org/2000/svg">
<path fill-rule="evenodd" clip-rule="evenodd" d="M6.0429 23.5043C6.0429 23.2258 5.81713 23 5.53862 23C5.26011 23 5.03433 23.2258 5.03433 23.5043V24.9985C5.03433 26.1022 4.13958 26.9969 3.03586 26.9969H1.5C1.22386 26.9969 1 27.2208 1 27.4969C1 27.7731 1.22386 27.9969 1.5 27.9969H3.03624C4.13976 27.9969 5.03433 28.8915 5.03433 29.995V31.4888C5.03433 31.7673 5.26011 31.9931 5.53862 31.9931C5.81713 31.9931 6.0429 31.7673 6.0429 31.4888V29.995C6.0429 28.8915 6.93748 27.9969 8.04099 27.9969H9.57718C9.85332 27.9969 10.0772 27.7731 10.0772 27.4969C10.0772 27.2208 9.85332 26.9969 9.57718 26.9969H8.04138C6.93765 26.9969 6.0429 26.1022 6.0429 24.9985V23.5043Z" fill="#FDE8B2"/>
<path fill-rule="evenodd" clip-rule="evenodd" d="M35.9224 46.1796C35.7255 45.9844 35.4062 45.9844 35.2093 46.1796C35.0123 46.3747 35.0123 46.691 35.2093 46.8861L36.279 47.946C37.0668 48.7264 37.0668 49.9918 36.279 50.7722L35.2093 51.8321C35.0123 52.0272 35.0123 52.3435 35.2093 52.5386C35.4062 52.7338 35.7255 52.7338 35.9224 52.5386L36.9922 51.4788C37.7799 50.6983 39.0571 50.6983 39.8449 51.4788L40.9146 52.5386C41.1116 52.7338 41.4309 52.7338 41.6278 52.5386C41.8247 52.3435 41.8247 52.0272 41.6278 51.8321L40.558 50.7722C39.7703 49.9918 39.7703 48.7264 40.558 47.946L41.6278 46.8861C41.8247 46.691 41.8247 46.3747 41.6278 46.1796C41.4309 45.9844 41.1116 45.9844 40.9146 46.1796L39.8449 47.2394C39.0571 48.0199 37.7799 48.0199 36.9922 47.2394L35.9224 46.1796Z" fill="#C74252"/>
<ellipse cx="37.0172" cy="11.9985" rx="2.01715" ry="1.99847" fill="#FF8696"/>
<ellipse cx="11.5129" cy="42.4989" rx="1.51286" ry="1.49885" fill="#42BFC7"/>
<rect width="3.08634" height="3.08634" rx="1" transform="matrix(0.710389 -0.70381 0.710389 0.70381 29 5.1722)" fill="#88A4C9"/>
<path d="M40.7103 40.4499C40.318 40.0612 40.318 39.431 40.7103 39.0423L42.0613 37.7038C42.4536 37.3151 43.0897 37.3151 43.4821 37.7038L44.833 39.0423C45.2254 39.431 45.2254 40.0612 44.833 40.4499L43.4821 41.7884C43.0897 42.1771 42.4536 42.1771 42.0613 41.7884L40.7103 40.4499Z" fill="#FF8696"/>
<path d="M12.0626 13.624C12.0626 13.624 11.07 11.2892 7.26734 9.84672C3.16477 8.57167 1.02551 9.90916 1.02551 9.90916" stroke="#BDDFE1" stroke-width="2" stroke-linecap="round"/>
<ellipse cx="14.8122" cy="16.8225" rx="1.51286" ry="1.49885" transform="rotate(-76.4179 14.8122 16.8225)" fill="#BDDFE1"/>
<path d="M38 30.0325C38 30.0325 43.9052 29.7488 48.7714 33.5844C53.3198 37.6491 54.2208 42.8181 54.2208 42.8181" stroke="#453248" stroke-width="2" stroke-linecap="round"/>
<path d="M23.9615 53.1632C24.0769 53.469 24.3583 53.5498 24.6154 53.6448C27.4256 54.6815 31.1097 52.2209 31.1724 49.2464C31.1926 48.2935 30.9247 47.3834 30.5496 46.5085C30.0174 45.2681 29.4885 44.0268 28.9556 42.7871C28.523 41.7806 28.5214 41.7813 27.5166 42.1388C23.001 43.7443 17.8875 42.5256 14.7838 39.1048C11.4706 35.4527 11.0418 30.8689 13.5526 26.2922C14.8861 23.8613 16.5897 21.6977 18.3711 19.5949C18.9088 18.9599 18.9739 18.4619 18.6346 17.7026C17.3516 14.8337 16.5574 11.851 16.8703 8.66164C17.0285 7.05118 17.377 5.49347 18.1282 4.04346C18.5342 3.2596 19.0937 2.61802 19.8076 2.08937C20.3202 1.7098 20.8415 1.68936 21.2981 1.88385C22.5028 2.34904 24.0281 3.79862 24.723 4.89585C27.9781 10.0375 26.532 15.2878 23.4954 20.3258C23.1414 20.9133 22.7988 21.5163 22.3168 22.0188C22.0804 22.2656 22.0276 22.5388 22.1625 22.86C22.6958 24.1273 23.2347 25.3928 23.744 26.6695C23.9529 27.1933 24.3198 27.1514 24.7433 27.0515C26.7379 26.5813 28.6415 26.7759 30.4513 27.7825C34.5073 30.0385 35.4127 35.5177 32.2796 38.933C31.6746 39.5927 31.0184 40.2024 30.2791 40.7086C29.8661 40.9916 29.8006 41.2808 29.9973 41.7409C30.6385 43.2389 31.2524 44.7487 31.8527 46.2638C32.4339 47.7307 32.8047 49.2372 32.3168 50.807C31.7395 52.6646 30.3413 53.7132 28.6171 54.4223C26.3855 55.3406 24.1735 55.3663 22.0586 54.1523C20.6748 53.358 19.7534 52.1781 19.9201 50.4755C20.0821 48.8204 21.0303 47.7228 22.5932 47.1625C24.2203 46.5797 26.302 47.6323 26.7999 49.2778C27.2568 50.7887 26.3269 52.3497 24.6539 52.8915C24.4215 52.9656 24.1381 52.9216 23.9615 53.1632ZM25.3739 41.4153C25.9698 41.294 26.6173 41.1644 27.259 40.9838C27.9599 40.7865 28.0502 40.4761 27.7738 39.8297C26.7628 37.4656 25.8014 35.0805 24.8221 32.7027C24.093 30.9315 23.7998 30.8849 22.4845 32.3735C20.6829 34.4127 20.8903 37.425 24.0745 38.3017C24.1729 38.3286 24.2709 38.3585 24.3676 38.3912C24.6341 38.4813 24.9684 38.5533 24.8671 38.9307C24.7771 39.2659 24.4699 39.2711 24.1707 39.2289C23.2444 39.0975 22.3999 38.7391 21.6024 38.2753C19.1276 36.8359 18.227 33.801 19.4536 31.2328C20.0764 29.9282 20.9767 28.8826 22.1714 28.0949C22.6247 27.796 22.7125 27.4907 22.502 27.0105C22.0829 26.0547 21.6879 25.0882 21.3006 24.1191C21.1146 23.6538 20.9323 23.5612 20.5746 23.9939C20.0229 24.6621 19.4072 25.2783 18.8594 25.9497C17.2205 27.9585 15.7366 30.0564 15.2052 32.6664C14.5442 35.9136 15.7462 38.7375 18.5726 40.3629C20.669 41.5677 22.9508 41.8197 25.3739 41.4153ZM18.9806 14.5463C19.05 15.1661 19.4067 16.0915 19.7603 17.0191C19.9207 17.4399 20.0677 17.5448 20.4192 17.1445C21.5381 15.8698 22.4677 14.4783 23.1311 12.9192C23.822 11.2953 24.1767 9.62213 23.7603 7.85839C23.4293 6.45585 22.1165 5.95057 20.9333 6.77702C20.3114 7.21161 19.8701 7.79584 19.5725 8.49011C18.7883 10.3201 18.6089 12.218 18.9806 14.5463ZM31.8408 35.0951C31.3774 32.3575 29.0847 30.4718 26.0221 30.6651C25.5151 30.6971 25.5198 30.9408 25.6806 31.3259C26.8164 34.0452 27.9472 36.7669 29.0639 39.494C29.2533 39.9569 29.4888 39.9323 29.8055 39.6594C31.2948 38.3745 32.0146 36.7763 31.8408 35.0951Z" fill="#6FBE41"/>
<path d="M51.7992 13.1812C51.7992 13.1812 48.7357 10.422 47.3432 11.5257C45.5597 12.9392 49.8101 15.9796 48.1787 17.596C46.7862 18.9756 44.1019 15.0128 42.6086 16.4923C40.9377 18.1478 45.4163 20.3328 43.7226 22.0108C42.3301 23.3904 38.7095 20.6311 38.7095 20.6311" stroke="#42BFC7" stroke-width="2" stroke-linecap="round"/>
</svg>
